<?xml version="1.0" encoding="utf-8"?>

<!-- The icon can be used freely in both personal and commercial projects with no attribution required, but always appreciated. 
You may NOT sub-license, resell, rent, redistribute or otherwise transfer the icon without express written permission from iconmonstr.com -->

<!DOCTYPE svg PUBLIC "-//W3C//DTD SVG 1.1//EN" "http://www.w3.org/Graphics/SVG/1.1/DTD/svg11.dtd">
<svg version="1.1" xmlns="http://www.w3.org/2000/svg" xmlns:xlink="http://www.w3.org/1999/xlink" x="0px" y="0px"
	 width="512px" height="512px" viewBox="0 0 512 512" enable-background="new 0 0 512 512" xml:space="preserve">
<path id="police-vest-icon" d="M440.312,332.081v85.34c0,24.62-19.959,44.579-44.578,44.579H116.266
	c-24.619,0-44.578-19.959-44.578-44.579v-85.34h114.949v68.747H96.839v16.598c0,10.728,8.695,19.423,19.422,19.423h279.479
	c10.727,0,19.422-8.695,19.422-19.423v-16.598h-89.798v-68.747H440.312z M176.272,50L96.493,67.681
	c29.854,59.201,36.212,142.576-24.806,194.662v54.647h25.151v-41.542c44.819-45.499,53.693-107.759,41.657-164.274l27.213,62.123
	l55.344-19.795L176.272,50z M415.508,67.681L335.728,50l-44.874,103.679l55.438,19.618l27.213-62.123
	c-12.035,56.516-3.162,118.775,41.657,164.274v41.542h25.151v-54.647C379.296,210.257,385.654,126.882,415.508,67.681z
	 M308.15,75.973C297.769,87.084,281.354,97.211,256,97.211s-41.769-10.127-52.15-21.238l18.095,41.791
	c9.51,2.902,22.169,4.599,34.056,4.599s24.546-1.696,34.056-4.599L308.15,75.973z M308.698,271.904
	c0,17.05-10.913,29.604-29.942,34.444c-13.684,3.48-15.751,4.967-22.756,10.642c-7.005-5.675-9.074-7.161-22.755-10.642
	c-19.029-4.841-29.942-17.395-29.942-34.444c0-9.533,3.832-18.312,8.271-30.37c4.999-13.584,2.163-17.891-3.104-23.375l-4.478-4.664
	l25.667-21.719c2.54,2.6,6.115,7.367,12.66,7.367c6.443,0,10.809-4.636,13.743-7.204c2.652,2.393,6.98,7.204,13.618,7.204
	c6.457,0,9.908-4.551,12.752-7.457c5.626,4.983,0.496,0.586,25.575,21.809l-4.478,4.664c-5.267,5.484-8.103,9.791-3.103,23.375
	C304.868,253.598,308.698,262.373,308.698,271.904z M282.604,245.798l-18.23-2.649l-8.154-16.52l-8.154,16.52l-18.231,2.649
	l13.192,12.859l-3.114,18.16l16.308-8.574l16.305,8.574l-3.111-18.16L282.604,245.798z"/>
</svg>
