<svg xmlns="http://www.w3.org/2000/svg" xmlns:xlink="http://www.w3.org/1999/xlink" version="1.1" x="0px" y="0px" viewBox="0 0 50 62.5" enable-background="new 0 0 50 50" xml:space="preserve"><g><path fill-rule="evenodd" clip-rule="evenodd" fill="#000000" d="M25.543,5.233l4.912,8.512h11.77   c-0.17-0.287-0.23-0.572-0.23-0.918c0-1.199,0.973-2.168,2.174-2.168c1.199,0,2.17,0.969,2.17,2.168   c0,1.205-0.971,2.176-2.17,2.176c-0.398,0-0.801-0.119-1.086-0.344l-6.055,10.512l5.883,10.229   c0.398-0.518,1.029-0.857,1.713-0.857c1.199,0,2.17,0.969,2.17,2.17c0,1.199-0.971,2.17-2.17,2.17s-2.17-0.971-2.17-2.17   c0-0.055,0-0.113,0-0.17H30.455l-4.799,8.281c0.858,0.283,1.487,1.086,1.487,2.057c0,1.199-0.971,2.17-2.169,2.17   c-1.143,0-2.114-0.971-2.114-2.17c0-0.914,0.569-1.715,1.37-2l-4.799-8.338H7.717c0,0.115,0.059,0.281,0.059,0.396   c0,1.199-0.971,2.174-2.171,2.174c-1.199,0-2.17-0.975-2.17-2.174s0.971-2.172,2.17-2.172c0.514,0,0.972,0.23,1.37,0.516   l5.828-10.111L7.033,15.116c-0.4,0.514-0.972,0.801-1.657,0.801c-1.199,0-2.169-0.975-2.169-2.172c0-1.143,0.97-2.117,2.169-2.117   c1.142,0,2.115,0.918,2.115,2.117H19.43l4.913-8.57c-0.857-0.283-1.484-1.086-1.484-2.057c0-1.199,0.972-2.168,2.114-2.168   c1.199,0,2.169,0.969,2.169,2.168C27.143,4.146,26.455,5.005,25.543,5.233L25.543,5.233z M24.914,19.003l-1.485,4.682h-4.967   l3.997,2.916l-1.544,4.684l3.999-2.914l3.999,2.914l-1.541-4.684l3.998-2.916h-4.914L24.914,19.003L24.914,19.003z M24.914,15.003   c-5.597,0-10.169,4.514-10.169,10.168c0,5.6,4.572,10.17,10.169,10.17c5.598,0,10.168-4.57,10.168-10.17   C35.082,19.517,30.512,15.003,24.914,15.003z"/></g><text x="0" y="65" fill="#000000" font-size="5px" font-weight="bold" font-family="'Helvetica Neue', Helvetica, Arial-Unicode, Arial, Sans-serif">Created by Mister Pixel</text><text x="0" y="70" fill="#000000" font-size="5px" font-weight="bold" font-family="'Helvetica Neue', Helvetica, Arial-Unicode, Arial, Sans-serif">from the Noun Project</text></svg>